<svg width="32" height="32" viewBox="0 0 32 32" fill="none" xmlns="http://www.w3.org/2000/svg">
<path d="M8.06067 27.4026C7.4008 27.6854 6.66675 27.2014 6.66675 26.4835V6.66667C6.66675 5.93333 6.92808 5.30533 7.45075 4.78267C7.97253 4.26089 8.60008 4 9.33341 4H22.6667C23.4001 4 24.0281 4.26089 24.5507 4.78267C25.0725 5.30533 25.3334 5.93333 25.3334 6.66667V26.4835C25.3334 27.2014 24.5994 27.6854 23.9395 27.4026L16.0001 24L8.06067 27.4026Z" fill="#0072AA"/>
<path d="M8.06067 27.4026C7.4008 27.6854 6.66675 27.2014 6.66675 26.4835V6.66667C6.66675 5.93333 6.92808 5.30533 7.45075 4.78267C7.97253 4.26089 8.60008 4 9.33341 4H22.6667C23.4001 4 24.0281 4.26089 24.5507 4.78267C25.0725 5.30533 25.3334 5.93333 25.3334 6.66667V26.4835C25.3334 27.2014 24.5994 27.6854 23.9395 27.4026L16.0001 24L8.06067 27.4026Z" stroke="#0072AA"/>
</svg>
