<svg width="48" height="48" viewBox="0 0 48 48" fill="none" xmlns="http://www.w3.org/2000/svg">
<path d="M16 25C15.4477 25 15 24.5523 15 24C15 23.4477 15.4477 23 16 23V25ZM32 24L32.7071 23.2929C33.0976 23.6834 33.0976 24.3166 32.7071 24.7071L32 24ZM25.2929 18.7071C24.9024 18.3166 24.9024 17.6834 25.2929 17.2929C25.6834 16.9024 26.3166 16.9024 26.7071 17.2929L25.2929 18.7071ZM26.7071 30.7071C26.3166 31.0976 25.6834 31.0976 25.2929 30.7071C24.9024 30.3166 24.9024 29.6834 25.2929 29.2929L26.7071 30.7071ZM5 24C5 34.4934 13.5066 43 24 43V45C12.402 45 3 35.598 3 24H5ZM24 43C34.4934 43 43 34.4934 43 24H45C45 35.598 35.598 45 24 45V43ZM43 24C43 13.5066 34.4934 5 24 5V3C35.598 3 45 12.402 45 24H43ZM24 5C13.5066 5 5 13.5066 5 24H3C3 12.402 12.402 3 24 3V5ZM16 23H32V25H16V23ZM31.2929 24.7071L25.2929 18.7071L26.7071 17.2929L32.7071 23.2929L31.2929 24.7071ZM32.7071 24.7071L26.7071 30.7071L25.2929 29.2929L31.2929 23.2929L32.7071 24.7071Z" fill="#3C3D3D"/>
</svg>
