<svg width="20" height="16" viewBox="0 0 20 16" fill="none" xmlns="http://www.w3.org/2000/svg">
<path d="M0.625168 8C0.625168 8.29837 0.743694 8.58451 0.954674 8.79549C1.16565 9.00647 1.4518 9.125 1.75017 9.125H15.5314L10.7033 13.9531C10.5984 14.0576 10.5152 14.1818 10.4584 14.3186C10.4016 14.4553 10.3724 14.6019 10.3724 14.75C10.3724 14.8981 10.4016 15.0447 10.4584 15.1814C10.5152 15.3182 10.5984 15.4424 10.7033 15.5469C10.9156 15.7564 11.2019 15.8739 11.5002 15.8739C11.7985 15.8739 12.0847 15.7564 12.297 15.5469L19.047 8.79687C19.1519 8.69236 19.2351 8.56816 19.2919 8.43142C19.3487 8.29467 19.3779 8.14806 19.3779 8C19.3779 7.85193 19.3487 7.70532 19.2919 7.56858C19.2351 7.43183 19.1519 7.30764 19.047 7.20312L12.297 0.453123C12.0857 0.241779 11.7991 0.123047 11.5002 0.123047C11.3522 0.123047 11.2056 0.152196 11.0689 0.208831C10.9322 0.265466 10.8079 0.348476 10.7033 0.453123C10.5986 0.557771 10.5156 0.682005 10.459 0.818733C10.4024 0.955461 10.3732 1.10201 10.3732 1.25C10.3732 1.39799 10.4024 1.54454 10.459 1.68126C10.5156 1.81799 10.5986 1.94223 10.7033 2.04687L15.5314 6.875H1.75017C1.4518 6.875 1.16565 6.99353 0.954674 7.2045C0.743694 7.41548 0.625168 7.70163 0.625168 8Z" fill="#01A3E0"/>
</svg>
