<svg width="48" height="48" viewBox="0 0 48 48" fill="none" xmlns="http://www.w3.org/2000/svg">
<circle cx="24" cy="24" r="23.5" stroke="#E6E7E7"/>
<path d="M37.074 21.3887H36V21.3333H24V26.6667H31.5353C30.436 29.7713 27.482 32 24 32C19.582 32 16 28.418 16 24C16 19.582 19.582 16 24 16C26.0393 16 27.8946 16.7693 29.3073 18.026L33.0786 14.2547C30.6973 12.0353 27.512 10.6667 24 10.6667C16.6366 10.6667 10.6666 16.6367 10.6666 24C10.6666 31.3633 16.6366 37.3333 24 37.3333C31.3633 37.3333 37.3333 31.3633 37.3333 24C37.3333 23.106 37.2413 22.2333 37.074 21.3887Z" fill="#FFC107"/>
<path d="M12.204 17.794L16.5846 21.0067C17.77 18.072 20.6406 16 24 16C26.0393 16 27.8946 16.7693 29.3073 18.026L33.0786 14.2547C30.6973 12.0353 27.512 10.6667 24 10.6667C18.8786 10.6667 14.4373 13.558 12.204 17.794Z" fill="#FF3D00"/>
<path d="M24 37.3333C27.444 37.3333 30.5733 36.0153 32.9393 33.872L28.8127 30.38C27.429 31.4323 25.7383 32.0014 24 32C20.532 32 17.5873 29.7887 16.478 26.7027L12.13 30.0527C14.3367 34.3707 18.818 37.3333 24 37.3333Z" fill="#4CAF50"/>
<path d="M37.074 21.3887H36V21.3333H24V26.6667H31.5353C31.0095 28.1443 30.0622 29.4354 28.8107 30.3807L28.8127 30.3793L32.9393 33.8713C32.6473 34.1367 37.3333 30.6667 37.3333 24C37.3333 23.106 37.2413 22.2333 37.074 21.3887Z" fill="#1976D2"/>
</svg>
