<svg width="175" height="52" viewBox="0 0 175 52" fill="none" xmlns="http://www.w3.org/2000/svg">
<path d="M169.549 31.7794L174.404 34.7103C172.828 36.812 169.06 40.4179 162.544 40.4179C154.453 40.4179 148.427 34.749 148.427 27.5374C148.427 19.8634 154.517 14.6572 161.863 14.6572C169.251 14.6572 172.871 19.9788 174.042 22.8518L174.681 24.3174L155.645 31.4516C157.093 34.0356 159.351 35.3467 162.544 35.3467C165.738 35.3467 167.952 33.9198 169.549 31.7794ZM154.623 27.1329L167.335 22.3507C166.632 20.7505 164.546 19.613 162.054 19.613C158.882 19.613 154.474 22.1582 154.623 27.1329Z" fill="#FF302F"/>
<path d="M139.25 1.52626H145.382V39.2417H139.25V1.52626Z" fill="#20B15A"/>
<path d="M129.584 15.6597H135.503V38.5667C135.503 48.0724 129.307 51.9867 121.982 51.9867C115.084 51.9867 110.932 47.7834 109.377 44.3705L114.807 42.3265C115.786 44.4281 118.15 46.9158 121.982 46.9158C126.688 46.9158 129.584 44.274 129.584 39.338V37.487H129.371C127.965 39.0294 125.283 40.4176 121.876 40.4176C114.764 40.4176 108.248 34.8066 108.248 27.5761C108.248 20.3066 114.764 14.638 121.876 14.638C125.261 14.638 127.965 16.007 129.371 17.511H129.584V15.6597ZM130.009 27.5761C130.009 23.0255 126.666 19.7089 122.408 19.7089C118.107 19.7089 114.487 23.0255 114.487 27.5761C114.487 32.0685 118.107 35.3272 122.408 35.3272C126.667 35.3467 130.01 32.0685 130.01 27.5761" fill="#3686F7"/>
<path d="M74.5855 27.4795C74.5855 34.9031 68.198 40.3597 60.3624 40.3597C52.527 40.3597 46.1392 34.884 46.1392 27.4795C46.1392 20.0175 52.527 14.5801 60.3624 14.5801C68.198 14.5801 74.5855 20.0175 74.5855 27.4795ZM68.3683 27.4795C68.3683 22.8521 64.6632 19.6702 60.3624 19.6702C56.0615 19.6702 52.3564 22.8521 52.3564 27.4795C52.3564 32.0685 56.0615 35.2888 60.3624 35.2888C64.6635 35.2888 68.3683 32.0685 68.3683 27.4795Z" fill="#FF302F"/>
<path d="M105.651 27.5374C105.651 34.961 99.2633 40.4176 91.4279 40.4176C83.5922 40.4176 77.2047 34.9607 77.2047 27.5374C77.2047 20.0754 83.5922 14.6572 91.4279 14.6572C99.2633 14.6572 105.651 20.0562 105.651 27.5374ZM99.4123 27.5374C99.4123 22.91 95.7075 19.7281 91.4064 19.7281C87.1055 19.7281 83.4005 22.91 83.4005 27.5374C83.4005 32.1264 87.1055 35.3467 91.4064 35.3467C95.7287 35.3467 99.4123 32.1072 99.4123 27.5374Z" fill="#FFBA40"/>
<path d="M22.7602 34.7682C13.8386 34.7682 6.85505 28.2509 6.85505 20.1717C6.85505 12.0928 13.8386 5.57546 22.7602 5.57546C27.5724 5.57546 31.0854 7.29146 33.683 9.4897L37.963 5.61415C34.3434 2.47125 29.51 0.0798645 22.7602 0.0798645C10.5386 0.080174 0.254272 9.10434 0.254272 20.1717C0.254272 31.2396 10.5386 40.2635 22.7602 40.2635C29.361 40.2635 34.3434 38.2968 38.2399 34.6332C42.2427 31.0081 43.4776 25.9177 43.4776 21.7914C43.4776 20.4995 43.3074 19.1691 43.1156 18.1858H22.7602V23.5461H37.2603C36.8344 26.9013 35.6634 29.1958 33.9387 30.7574C31.852 32.6665 28.552 34.7682 22.7602 34.7682Z" fill="#3686F7"/>
</svg>
