<svg width="66" height="66" viewBox="0 0 66 66" fill="none" xmlns="http://www.w3.org/2000/svg">
<rect y="11.1035" width="56" height="56" rx="12" transform="rotate(-11.4363 0 11.1035)" fill="white"/>
<path d="M45.3105 27.8715L44.2578 28.0845L44.2468 28.0302L32.4851 30.4096L33.5426 35.637L40.9283 34.1429C40.4664 37.4039 38.0129 40.1741 34.6001 40.8645C30.2698 41.7405 26.0487 38.9398 25.1727 34.6095C24.2967 30.2792 27.0973 26.0581 31.4276 25.1821C33.4264 24.7778 35.3975 25.164 37.0313 26.1156L39.98 21.6713C37.2059 19.9682 33.8124 19.2583 30.3701 19.9547C23.153 21.4147 18.4852 28.4499 19.9452 35.667C21.4052 42.8841 28.4404 47.5519 35.6575 46.0919C42.8747 44.6319 47.5424 37.5967 46.0824 30.3796C45.9052 29.5033 45.642 28.6662 45.3105 27.8715Z" fill="#FFC107"/>
<path d="M20.2213 29.2795L25.152 31.5598C25.7319 28.4484 28.1348 25.8483 31.4274 25.1823C33.4262 24.7779 35.3973 25.1641 37.0311 26.1157L39.9797 21.6715C37.2056 19.9684 33.8122 19.2585 30.3699 19.9548C25.3503 20.9703 21.5704 24.6848 20.2213 29.2795Z" fill="#FF3D00"/>
<path d="M35.6574 46.0919C39.0331 45.4091 41.8389 43.4967 43.733 40.9268L38.9959 38.3224C37.8483 39.6281 36.304 40.5212 34.6 40.8645C31.2008 41.5521 27.8762 39.9685 26.177 37.1638L22.5795 41.3094C25.5985 45.1041 30.5783 47.1194 35.6574 46.0919Z" fill="#4CAF50"/>
<path d="M45.3103 27.8716L44.2576 28.0846L44.2466 28.0303L32.4849 30.4097L33.5423 35.6371L40.9281 34.143C40.7056 35.6956 40.0332 37.1489 38.9939 38.3235L38.9956 38.3218L43.7327 40.9263C43.4991 41.2442 47.4041 36.914 46.0822 30.3797C45.905 29.5034 45.6418 28.6663 45.3103 27.8716Z" fill="#1976D2"/>
</svg>
