<svg width="65" height="65" viewBox="0 0 65 65" fill="none" xmlns="http://www.w3.org/2000/svg">
<rect x="9.20605" y="0.388428" width="56" height="56" rx="12" transform="rotate(9.05945 9.20605 0.388428)" fill="white"/>
<path d="M48.3202 35.2883C49.7116 26.5621 43.7654 18.36 35.0392 16.9686C26.3129 15.5772 18.1108 21.5234 16.7194 30.2496C15.462 38.136 20.1977 45.5941 27.5623 47.9838L29.3228 36.9426L25.3109 36.303L26.0392 31.7356L30.051 32.3753L30.6061 28.8943C31.2375 24.9343 33.9452 23.1231 37.5544 23.6986C39.283 23.9742 41.042 24.5711 41.042 24.5711L40.422 28.4595L38.4296 28.1418C36.4668 27.8288 35.6605 28.9492 35.4612 30.1988L34.9886 33.1626L39.3708 33.8613L37.942 38.317L34.2604 37.7299L32.4999 48.7711C40.2425 48.7902 47.0627 43.1748 48.3202 35.2883Z" fill="#1877F2"/>
<path d="M37.9421 38.3169L39.3708 33.8613L34.9887 33.1625L35.4613 30.1987C35.6605 28.949 36.4669 27.8287 38.4297 28.1417L40.422 28.4594L41.042 24.571C41.042 24.571 39.2831 23.9741 37.5543 23.6984C33.9452 23.123 31.2375 24.9342 30.6061 28.8942L30.0511 32.3752L26.0392 31.7356L25.311 36.3029L29.3228 36.9425L27.5623 47.9837C28.3586 48.2419 29.1738 48.4377 30.0005 48.5693C30.8272 48.7013 31.6628 48.7688 32.4999 48.771L34.2604 37.7298L37.9421 38.3169Z" fill="white"/>
</svg>
