<svg width="72" height="72" viewBox="0 0 72 72" fill="none" xmlns="http://www.w3.org/2000/svg">
<rect x="19.0635" width="56" height="56" rx="12" transform="rotate(19.9024 19.0635 0)" fill="white"/>
<path d="M25.8347 36.7816C25.2273 38.5105 23.3212 39.4273 21.592 38.8198C19.8631 38.2125 18.9473 36.3043 19.5547 34.5754C20.1621 32.8465 22.0703 31.9304 23.7993 32.5378L26.9384 33.6407L25.8347 36.7816ZM27.4171 37.3376C28.0245 35.6086 29.9328 34.6926 31.6617 35.3C33.3906 35.9074 34.3067 37.8154 33.6992 39.5445L30.937 47.4072C30.3296 49.1361 28.4216 50.0522 26.6924 49.4448C24.9635 48.8374 24.0475 46.9291 24.6549 45.2002L27.4171 37.3376Z" fill="#DE1C59"/>
<path d="M34.9881 25.8305C33.2592 25.2231 32.3424 23.317 32.9499 21.5878C33.5573 19.8589 35.4655 18.9431 37.1944 19.5505C38.9233 20.1579 39.8393 22.0661 39.2319 23.795L38.1291 26.9342L34.9881 25.8305ZM34.4322 27.4129C36.1611 28.0203 37.0772 29.9285 36.4698 31.6574C35.8624 33.3864 33.9544 34.3025 32.2252 33.695L24.3626 30.9327C22.6337 30.3254 21.7178 28.4174 22.3252 26.6883C22.9326 24.9594 24.8409 24.0433 26.5698 24.6507L34.4322 27.4129Z" fill="#35C5F0"/>
<path d="M45.9393 34.9844C46.5467 33.2555 48.4528 32.3387 50.182 32.9462C51.9109 33.5536 52.8269 35.4618 52.2195 37.1907C51.6121 38.9196 49.7039 39.8357 47.975 39.2283L44.8358 38.1255L45.9393 34.9844ZM44.3569 34.4285C43.7495 36.1574 41.8412 37.0734 40.1123 36.466C38.3834 35.8586 37.4673 33.9506 38.0748 32.2215L40.837 24.3588C41.4444 22.6299 43.3523 21.714 45.0815 22.3215C46.8104 22.9289 47.7264 24.8371 47.119 26.5661L44.3569 34.4285Z" fill="#2EB57D"/>
<path d="M36.7858 45.9353C38.5148 46.5427 39.4315 48.4488 38.8241 50.178C38.2167 51.9069 36.3084 52.8229 34.5795 52.2155C32.8506 51.6081 31.9346 49.6999 32.542 47.971L33.6448 44.8318L36.7858 45.9353ZM37.3418 44.3529C35.6129 43.7455 34.6968 41.8372 35.3042 40.1083C35.9116 38.3794 37.8196 37.4633 39.5488 38.0708L47.4114 40.833C49.1403 41.4404 50.0564 43.3484 49.449 45.0776C48.8416 46.8065 46.9333 47.7225 45.2044 47.1151L37.3418 44.3529Z" fill="#EBB02E"/>
</svg>
