<svg width="68" height="68" viewBox="0 0 68 68" fill="none" xmlns="http://www.w3.org/2000/svg">
<rect width="68" height="68" rx="8" fill="#DEF3FF"/>
<g clip-path="url(#clip0_97_3766)">
<path opacity="0.2" d="M44.721 23.373C44.87 23.3295 45.0271 23.3214 45.1799 23.3491C45.3326 23.3769 45.4768 23.4399 45.601 23.533C45.7252 23.6262 45.826 23.7469 45.8954 23.8858C45.9648 24.0246 46.001 24.1778 46.001 24.333V41.6663C46.001 41.8216 45.9648 41.9747 45.8954 42.1135C45.826 42.2524 45.7252 42.3732 45.601 42.4663C45.4768 42.5595 45.3326 42.6224 45.1799 42.6502C45.0271 42.678 44.87 42.6698 44.721 42.6263L33.0002 39.2078V26.7915L44.721 23.373Z" fill="#01A3E0"/>
<path d="M46.001 24.333V41.6663C46.001 41.8216 45.9648 41.9747 45.8954 42.1135C45.826 42.2524 45.7252 42.3732 45.601 42.4663C45.4768 42.5595 45.3326 42.6224 45.1799 42.6502C45.0271 42.678 44.87 42.6698 44.721 42.6263L22.721 36.2097C22.5133 36.1491 22.3308 36.0228 22.201 35.8497C22.0712 35.6766 22.001 35.466 22.001 35.2497V30.7497C22.001 30.5333 22.0712 30.3228 22.201 30.1497C22.3308 29.9766 22.5133 29.8503 22.721 29.7897L44.721 23.373C44.87 23.3295 45.0271 23.3214 45.1799 23.3491C45.3326 23.3769 45.4768 23.4399 45.601 23.533C45.7252 23.6262 45.826 23.7469 45.8954 23.8858C45.9648 24.0246 46.001 24.1778 46.001 24.333V24.333Z" stroke="#01A3E0" stroke-width="2" stroke-linecap="round" stroke-linejoin="round"/>
<path d="M27 37.4582V42.0001C27 42.2653 27.1054 42.5197 27.2929 42.7072C27.4804 42.8948 27.7348 43.0001 28 43.0001H32C32.2652 43.0001 32.5196 42.8948 32.7071 42.7072C32.8946 42.5197 33 42.2653 33 42.0001V26.792" stroke="#01A3E0" stroke-width="2" stroke-linecap="round" stroke-linejoin="round"/>
</g>
<defs>
<clipPath id="clip0_97_3766">
<rect width="32" height="32" fill="white" transform="matrix(-1 0 0 1 50 18)"/>
</clipPath>
</defs>
</svg>
