<svg width="68" height="68" viewBox="0 0 68 68" fill="none" xmlns="http://www.w3.org/2000/svg">
<rect width="68" height="68" rx="8" fill="#DEF3FF"/>
<path opacity="0.2" d="M42.9995 33.0005L40.2021 25.5409C40.1405 25.3766 40.0368 25.2314 39.9013 25.1199C39.7658 25.0084 39.6033 24.9345 39.4302 24.9056L21.9995 22.0005L24.9047 39.4312C24.9335 39.6043 25.0074 39.7668 25.1189 39.9023C25.2304 40.0377 25.3756 40.1415 25.5399 40.2031L32.9995 43.0005L42.9995 33.0005ZM29.9999 32.4998C29.9999 32.0053 30.1466 31.522 30.4213 31.1108C30.696 30.6997 31.0864 30.3793 31.5432 30.1901C32 30.0008 32.5027 29.9513 32.9877 30.0478C33.4726 30.1443 33.9181 30.3824 34.2677 30.732C34.6173 31.0816 34.8554 31.5271 34.9519 32.012C35.0484 32.497 34.9989 32.9997 34.8096 33.4565C34.6204 33.9133 34.3 34.3037 33.8889 34.5784C33.4777 34.8531 32.9944 34.9998 32.4999 34.9998C32.1716 34.9998 31.8465 34.9351 31.5432 34.8095C31.2399 34.6838 30.9643 34.4997 30.7322 34.2675C30.5 34.0354 30.3159 33.7598 30.1902 33.4565C30.0646 33.1532 29.9999 32.8281 29.9999 32.4998Z" fill="#01A3E0"/>
<path d="M30 32.5C30 33.8807 31.1193 35 32.5 35C33.8807 35 35 33.8807 35 32.5C35 31.1193 33.8807 30 32.5 30C31.1193 30 30 31.1193 30 32.5Z" stroke="#01A3E0" stroke-width="2" stroke-linecap="round" stroke-linejoin="round"/>
<path d="M21.9995 22.001L30.7322 30.7325" stroke="#01A3E0" stroke-width="2" stroke-linecap="round" stroke-linejoin="round"/>
<path d="M21.9995 22.001L24.9046 39.4317C24.9335 39.6048 25.0074 39.7672 25.1189 39.9027C25.2304 40.0382 25.3756 40.142 25.5399 40.2036L32.9995 43.001L42.9995 33.001L40.2022 25.5414C40.1405 25.3771 40.0368 25.2319 39.9013 25.1203C39.7658 25.0088 39.6033 24.9349 39.4302 24.9061L21.9995 22.001Z" stroke="#01A3E0" stroke-width="2" stroke-linecap="round" stroke-linejoin="round"/>
<path d="M32.9994 43.001L36.2923 46.2939C36.3852 46.3867 36.4954 46.4604 36.6167 46.5106C36.7381 46.5609 36.8681 46.5868 36.9994 46.5868C37.1307 46.5868 37.2608 46.5609 37.3821 46.5106C37.5034 46.4604 37.6137 46.3867 37.7065 46.2939L46.2923 37.7081C46.4798 37.5205 46.5852 37.2662 46.5852 37.001C46.5852 36.7358 46.4798 36.4814 46.2923 36.2939L42.9994 33.001" stroke="#01A3E0" stroke-width="2" stroke-linecap="round" stroke-linejoin="round"/>
</svg>
